<svg width="1920" height="438" viewBox="0 0 1920 438" fill="none" xmlns="http://www.w3.org/2000/svg">
<path d="M883.26 94.4369L815.761 94.4369V12.0341C815.761 -1.12446 800.176 -3.55685 792.204 6.90454C784.759 16.6756 776.845 27.5778 753.578 60.6135C730.311 93.6492 686.425 99.3686 683.587 99.3686C672.28 99.3686 669.394 115.725 685.381 115.725H722.864V349.792C722.864 417.492 765.443 437.499 815.761 437.499C876.084 437.499 898.627 405.823 905.84 395.405C913.053 384.987 900.497 378.22 893.907 385.076C887.318 391.932 873.232 402.54 855.41 402.54C819.512 402.54 815.761 370.719 815.761 347.471V115.725L883.26 115.725C898.744 115.725 898.26 94.4369 883.26 94.4369Z" fill="black" style="fill:black;fill-opacity:1;"/>
<path d="M1678.34 142.528C1729.66 100.526 1766.64 93.7219 1793.54 93.7219C1828.63 93.7217 1887.58 107.581 1887.58 191.559V386.672C1887.58 402.694 1892.32 416.164 1912.94 421.877C1923.01 424.669 1922.27 437.499 1910.98 437.499H1769.87C1757.79 437.499 1758.16 424.026 1768.21 421.877C1778.58 419.658 1793.96 411.246 1793.96 388.393V179.374C1793.96 157.018 1786.53 134.553 1747.61 134.553C1734.23 134.553 1705.85 139.732 1677.6 164.218L1677.57 386.672C1677.57 402.694 1682.32 416.164 1702.93 421.877C1713 424.67 1712.26 437.499 1700.98 437.499H1559.87C1547.79 437.499 1548.15 424.026 1558.2 421.877C1568.58 419.658 1583.95 411.246 1583.95 388.393L1584.29 191.559C1584.29 154.268 1573.78 151.894 1559.87 148.751C1559.38 148.641 1558.89 148.53 1558.4 148.417C1547.21 145.854 1548.3 134.487 1556.63 131.537C1564.22 128.851 1574.22 125.286 1585.01 121.439C1612.86 111.508 1646 99.6916 1656.68 96.2255C1675.19 90.2142 1678.34 100.313 1678.34 105.363V142.528Z" fill="black" style="fill:black;fill-opacity:1;"/>
<path d="M1380.94 203.059C1380.94 183.292 1403.53 155.38 1418.79 155.38C1424.58 155.38 1430.15 156.076 1442.44 171.377C1454.73 186.679 1472.12 192.011 1486.96 192.011C1501.8 192.011 1530.78 182.506 1530.78 145.179C1530.78 107.852 1505.51 94.1738 1478.61 94.1738C1451.83 94.1738 1411.81 112.626 1381.06 165.472C1381.12 144.837 1381.16 124.762 1381.16 105.365C1381.16 100.315 1378.02 90.2162 1359.5 96.2275C1348.83 99.6935 1315.69 111.51 1287.84 121.44C1277.04 125.288 1267.05 128.853 1259.46 131.539C1251.12 134.489 1250.04 145.856 1261.23 148.419C1261.72 148.532 1262.21 148.643 1262.7 148.753C1276.61 151.896 1287.12 154.27 1287.12 191.561L1286.78 388.395C1286.78 411.248 1271.4 419.66 1261.03 421.879C1250.98 424.028 1250.61 437.501 1262.69 437.501H1403.8C1415.09 437.501 1415.83 424.672 1405.76 421.879C1385.14 416.166 1380.4 402.696 1380.4 386.674C1380.4 334.849 1380.61 283.863 1380.81 235.052C1380.85 223.796 1380.9 214.068 1380.94 203.059Z" fill="black" style="fill:black;fill-opacity:1;"/>
<path fill-rule="evenodd" clip-rule="evenodd" d="M1092.61 256.042C1132.16 256.313 1174.41 256.603 1200.56 256.603C1207.66 256.603 1219.69 252.663 1219.69 234.153C1222.43 184.114 1198.49 84.0356 1080.85 84.0356C972.193 84.0356 908.012 173.471 908.012 259.63C908.012 373.067 972.995 437.498 1076.85 437.498C1099.06 437.651 1150.62 429.807 1179.72 402.46C1204.83 378.869 1209.32 370.383 1211.84 365.619C1212.11 365.107 1212.36 364.639 1212.6 364.199C1217.29 355.896 1208.58 345.779 1199.53 353.827C1176.01 376.937 1155.9 390.43 1109.18 390.43C1040.73 390.43 1007.35 350.269 1007.35 255.58C1025.14 255.58 1057.83 255.804 1092.61 256.042ZM1007.61 236.607H1102.45C1114.68 236.607 1133.97 232.804 1133.97 205.633C1133.97 161.072 1131.85 104.014 1075.55 104.014C1019.24 104.014 1007.61 165.311 1007.61 236.607Z" fill="black" style="fill:black;fill-opacity:1;"/>
<path fill-rule="evenodd" clip-rule="evenodd" d="M184.598 256.038C224.144 256.309 266.397 256.599 292.545 256.599C299.647 256.599 311.682 252.659 311.682 234.149C314.419 184.11 290.48 84.0315 172.833 84.0315C64.181 84.0315 0 173.467 0 259.626C0 373.063 64.9827 437.494 168.834 437.494C191.048 437.646 242.605 429.803 271.712 402.456C296.82 378.865 301.306 370.379 303.825 365.614C304.095 365.103 304.343 364.635 304.591 364.195C309.276 355.892 300.571 345.774 291.518 353.823C267.997 376.932 247.89 390.426 201.17 390.426C132.72 390.426 99.3371 350.265 99.3371 255.576C117.129 255.576 149.816 255.8 184.598 256.038ZM99.5925 236.603H194.428C206.657 236.603 225.95 232.799 225.95 205.629C225.95 161.068 223.83 104.009 167.527 104.009C111.223 104.009 99.5925 165.307 99.5925 236.603Z" fill="black" style="fill:black;fill-opacity:1;"/>
<path d="M398.499 340.598C401.948 335.186 409.853 335.2 413.283 340.623L466.062 424.071C469.75 429.901 465.561 437.507 458.663 437.507H405.911H352.712C345.801 437.507 341.614 429.875 345.328 424.046L398.499 340.598Z" fill="#18DD4C" style="fill:#18DD4C;fill:color(display-p3 0.0938 0.8662 0.2979);fill-opacity:1;"/>
<path d="M567.09 191.083C570.538 196.494 578.443 196.481 581.874 191.058L634.653 107.61C638.34 101.78 634.151 94.1738 627.253 94.1738H574.501H521.303C514.391 94.1738 510.205 101.806 513.919 107.634L567.09 191.083Z" fill="black" style="fill:black;fill-opacity:1;"/>
<path d="M466.479 146.009C440.238 101.886 401.492 93.7219 383.845 93.7219C376.932 93.7219 324.743 93.8246 321.345 93.8246C308.818 93.8246 309.56 107.176 318.749 110.568C342.777 119.438 360.726 140.71 374.115 161.865C383.845 177.24 504.717 372.057 513.31 385.212C541.994 429.124 578.296 437.499 595.943 437.499C602.857 437.499 655.045 437.396 658.443 437.396C670.971 437.396 670.229 424.045 661.04 420.653C637.012 411.783 619.792 390.013 605.674 369.356C595.943 355.118 513.798 222.5 466.479 146.009Z" fill="black" style="fill:black;fill-opacity:1;"/>
</svg>
